# xmcd
#
# Track frame offsets:
#	150
#	6508
#	25545
#	48152
#	58313
#	79558
#	109570
#	169149
#	197514
#	224764
#	250280
#
# Disc length: 3673 seconds
#
# Revision: 0
# Processed by: cddbd v1.5.1PL0 Copyright (c) Steve Scherf et al.
# Submitted via: EasyCDDAExtractor 8.0.2.1
#
DISCID=900e570b
DTITLE=Dio - Scandinavium Gothenburg 27-11-87 Disc 1
DYEAR=1987
DGENRE=Hard Rock
TTITLE0=Intro
TTITLE1=Stand Up And Shout
TTITLE2=Dream Evil
TTITLE3=Awaiting For The Music To Start Again
TTITLE4=Neon Knights
TTITLE5=Sunset Superman
TTITLE6=Naked In The Rain Incl Guitar Solo
TTITLE7=Last in Line
TTITLE8=Holy Diver
TTITLE9=Heaven and Hell
TTITLE10=Man On The Silver Mountain
EXTD=
EXTT0=
EXTT1=
EXTT2=
EXTT3=
EXTT4=
EXTT5=
EXTT6=
EXTT7=
EXTT8=
EXTT9=
EXTT10=
PLAYORDER=
